<svg width="151" height="151" viewBox="0 0 151 151" fill="none" xmlns="http://www.w3.org/2000/svg">
<path d="M0.0903236 86.0083C0.500446 88.8931 3.98058 95.78 8.62401 97.5493C13.2674 99.3185 55.0319 83.4611 75.3337 75.3113C73.1649 97.08 69.5755 141.609 72.5687 145.576C75.562 149.542 82.5656 151.047 86.0308 150.555C88.9156 150.145 95.8026 146.664 97.5718 142.021C99.341 137.378 83.4836 95.6131 75.3337 75.3113C97.1025 77.4801 141.632 81.0695 145.598 78.0763C149.564 75.083 150.987 67.499 150.577 64.6142C150.085 61.1491 146.687 54.8425 142.043 53.0732C137.4 51.304 95.6355 67.1614 75.3337 75.3113C77.5026 53.5425 81.092 9.0133 78.0988 5.04694C75.1055 1.08058 67.5215 -0.342303 64.6367 0.0678193C61.1716 0.560446 54.865 3.95809 53.0957 8.60151C51.3265 13.2449 67.1839 55.0095 75.3337 75.3113C53.5649 73.1424 9.0358 69.553 5.06944 72.5462C1.10307 75.5395 -0.402303 82.5431 0.0903236 86.0083ZM43.8302 138.283C39.2957 140.316 31.9651 137.907 29.6352 136.157C26.8366 134.055 22.9488 128.038 23.6369 123.117C24.325 118.196 58.3499 89.2468 75.2764 75.3876C66.6837 95.506 48.3646 136.251 43.8302 138.283ZM14.4708 29.4892C16.2207 27.1593 22.5895 22.8028 27.5106 23.4909C32.4318 24.179 61.3806 58.2039 75.2398 75.1304C55.1215 66.5377 14.3766 48.2186 12.3443 43.6842C10.3119 39.1497 12.3689 32.2878 14.4708 29.4892ZM106.943 12.1983C111.478 10.1659 118.808 12.5749 121.138 14.3248C123.937 16.4267 127.825 22.4434 127.137 27.3646C126.448 32.2858 92.4235 61.2346 75.4971 75.0938C84.0898 54.9755 102.409 14.2306 106.943 12.1983ZM123.263 126.991C128.184 127.679 134.553 123.322 136.303 120.992C138.405 118.194 140.462 111.332 138.429 106.797C136.397 102.263 95.652 83.9438 75.5336 75.351C89.3929 92.2775 118.342 126.302 123.263 126.991Z" fill="#FBFBFB"/>
</svg>
