<svg width="149" height="149" viewBox="0 0 149 149" fill="none" xmlns="http://www.w3.org/2000/svg">
<path d="M91.3014 0.208353C88.4616 -0.444354 80.7844 0.331811 77.4664 4.03073C74.1483 7.72964 73.9577 52.4028 74.2771 74.277C54.7376 64.4389 14.4643 45.1051 9.68786 46.4751C4.9114 47.8452 0.992407 53.8417 0.208395 57.2528C-0.444313 60.0926 0.331851 67.7697 4.03077 71.0878C7.72969 74.4059 52.4029 74.5965 74.2771 74.277C64.4389 93.8166 45.1051 134.09 46.4752 138.866C47.8452 143.643 54.4131 147.693 57.2528 148.346C60.6639 149.13 67.7698 148.222 71.0879 144.523C74.4059 140.824 74.5966 96.1512 74.2771 74.277C93.8167 84.1152 134.09 103.449 138.866 102.079C143.643 100.709 147.693 94.1411 148.346 91.3013C149.13 87.8903 148.222 80.7844 144.523 77.4663C140.825 74.1482 96.1513 73.9576 74.2771 74.277C84.1153 54.7375 103.449 14.4643 102.079 9.68781C100.709 4.91136 94.7124 0.992366 91.3014 0.208353ZM26.8099 22.2694C26.5406 17.3076 31.4204 11.3302 33.8899 9.78369C36.8563 7.92609 43.8677 6.45703 48.2139 8.86572C52.5601 11.2744 67.3665 53.4229 74.2264 74.1961C58.5331 58.9546 27.0792 27.2311 26.8099 22.2694ZM138.892 33.9178C140.439 36.3874 142.219 43.8955 139.81 48.2418C137.401 52.588 95.2528 67.3944 74.4796 74.2543C89.7211 58.561 121.445 27.1071 126.406 26.8378C131.368 26.5685 137.034 30.9515 138.892 33.9178ZM121.838 126.434C122.107 131.396 117.227 137.373 114.758 138.92C111.792 140.778 104.78 142.247 100.434 139.838C96.0877 137.429 81.2813 95.2807 74.4214 74.5075C90.1147 89.7491 121.569 121.473 121.838 126.434ZM8.83782 100.462C6.42913 104.808 8.2093 112.316 9.75579 114.786C11.6134 117.752 17.2797 122.135 22.2415 121.866C27.2032 121.597 58.9267 90.1426 74.1682 74.4493C53.3951 81.3093 11.2465 96.1156 8.83782 100.462Z" fill="#C2FF01"/>
</svg>
