<svg width="53" height="53" viewBox="0 0 53 53" fill="none" xmlns="http://www.w3.org/2000/svg">
<path d="M41.9583 6.625C43.1297 6.625 44.2531 7.09033 45.0814 7.91861C45.9097 8.7469 46.375 9.87029 46.375 11.0417V41.9583C46.375 43.1297 45.9097 44.2531 45.0814 45.0814C44.2531 45.9097 43.1297 46.375 41.9583 46.375H11.0417C9.87029 46.375 8.7469 45.9097 7.91861 45.0814C7.09033 44.2531 6.625 43.1297 6.625 41.9583V11.0417C6.625 9.87029 7.09033 8.7469 7.91861 7.91861C8.7469 7.09033 9.87029 6.625 11.0417 6.625H41.9583ZM40.8542 40.8542V29.15C40.8542 27.2407 40.0957 25.4095 38.7456 24.0594C37.3955 22.7093 35.5643 21.9508 33.655 21.9508C31.7779 21.9508 29.5917 23.0992 28.5317 24.8217V22.3704H22.3704V40.8542H28.5317V29.9671C28.5317 28.2667 29.9008 26.8754 31.6012 26.8754C32.4212 26.8754 33.2076 27.2011 33.7874 27.7809C34.3672 28.3607 34.6929 29.1471 34.6929 29.9671V40.8542H40.8542ZM15.1933 18.9033C16.1773 18.9033 17.1209 18.5125 17.8167 17.8167C18.5125 17.1209 18.9033 16.1773 18.9033 15.1933C18.9033 13.1396 17.2471 11.4612 15.1933 11.4612C14.2035 11.4612 13.2543 11.8545 12.5544 12.5544C11.8545 13.2543 11.4612 14.2035 11.4612 15.1933C11.4612 17.2471 13.1396 18.9033 15.1933 18.9033ZM18.2629 40.8542V22.3704H12.1458V40.8542H18.2629Z" fill="#004ACD"/>
</svg>
