<svg width="237" height="34" viewBox="0 0 237 34" fill="none" xmlns="http://www.w3.org/2000/svg">
<path d="M1.72257e-05 7.2001V9.53674e-05H30.72V7.2001H18.96V33.6001H11.76V7.2001H1.72257e-05ZM55.6669 20.4001H41.7469V22.8001C41.7469 25.2001 42.9949 26.4001 45.5389 26.4001H60.9469V33.6001H44.5309C37.8109 33.6001 34.5469 30.4321 34.5469 24.0001V9.6001C34.5469 3.1681 37.7149 9.53674e-05 44.1469 9.53674e-05H55.6669C68.0509 9.53674e-05 68.0029 20.4001 55.6669 20.4001ZM41.7469 13.2001H54.4669C58.3069 13.2001 58.3549 7.2001 54.4669 7.2001H45.3469C42.9469 7.2001 41.7469 8.4001 41.7469 10.8001V13.2001ZM102.413 9.6001V33.6001H95.2125V10.8001C95.2125 8.4001 94.0125 7.2001 91.6125 7.2001H79.6125C77.2125 7.2001 76.0125 8.4001 76.0125 10.8001V33.6001H68.8125V9.6001C68.8125 3.1681 71.9805 9.53674e-05 78.4125 9.53674e-05H92.8125C99.2445 9.53674e-05 102.413 3.1681 102.413 9.6001ZM89.2125 13.2001V33.6001H82.0125V13.2001H89.2125ZM106.266 33.6001V22.8001C106.266 16.3681 109.434 13.2001 115.866 13.2001H126.81C130.89 13.2001 130.938 7.2001 126.81 7.2001H106.266V9.53674e-05H126.81C140.826 9.53674e-05 140.778 20.4001 126.81 20.4001H117.066C114.666 20.4001 113.466 21.6001 113.466 24.0001V33.6001H106.266ZM150.213 33.6001C144.165 33.6001 141.141 30.4321 141.141 24.0001V9.53674e-05H148.341V22.8001C148.341 25.2001 149.445 26.4001 151.701 26.4001H167.061V33.6001H150.213ZM180.506 9.53674e-05H192.026C198.458 9.53674e-05 201.626 3.1681 201.626 9.6001V24.0001C201.626 30.4321 198.458 33.6001 192.026 33.6001H180.506C174.074 33.6001 170.906 30.4321 170.906 24.0001V9.6001C170.906 3.1681 174.074 9.53674e-05 180.506 9.53674e-05ZM178.106 22.8001C178.106 25.2001 179.306 26.4001 181.706 26.4001H190.826C193.226 26.4001 194.426 25.2001 194.426 22.8001V10.8001C194.426 8.4001 193.226 7.2001 190.826 7.2001H181.706C179.306 7.2001 178.106 8.4001 178.106 10.8001V22.8001ZM205.453 9.53674e-05H212.653V13.2001H223.117C225.133 13.2001 226.093 12.1921 226.093 10.1761V9.53674e-05H233.293V10.1761C233.293 13.7281 232.381 16.3681 230.557 18.0481C231.133 19.3921 231.709 20.9761 232.333 22.8001L236.173 33.6001H228.493L225.133 24.0001C224.365 21.7441 223.933 20.4001 221.533 20.4001H212.653V33.6001H205.453V9.53674e-05Z" fill="#004ACD"/>
</svg>
