<svg width="310" height="324" viewBox="0 0 310 324" fill="none" xmlns="http://www.w3.org/2000/svg">
<path d="M144.874 11.2822C149.632 4.23938 160.002 4.23939 164.76 11.2822L180.599 34.7266C186.76 43.8454 198.333 47.6056 208.677 43.8496L235.272 34.1934C243.261 31.2923 251.651 37.3873 251.361 45.8818L250.395 74.1592C250.019 85.1576 257.172 95.0025 267.748 98.0439L294.939 105.863C303.108 108.212 306.312 118.075 301.085 124.776L283.682 147.085C276.914 155.762 276.914 167.931 283.682 176.608L301.085 198.917C306.312 205.619 303.108 215.481 294.939 217.83L267.748 225.649C257.172 228.691 250.019 238.536 250.395 249.534L251.361 277.812C251.651 286.306 243.261 292.401 235.272 289.5L208.677 279.844C198.333 276.088 186.76 279.848 180.599 288.967L164.76 312.411C160.002 319.454 149.632 319.454 144.874 312.411L129.035 288.967C122.874 279.848 111.301 276.088 100.957 279.844L74.3619 289.5C66.3728 292.401 57.983 286.306 58.2731 277.812L59.2389 249.534C59.6146 238.536 52.4625 228.691 41.8864 225.649L14.6949 217.83C6.52633 215.481 3.32158 205.619 8.54944 198.917L25.9518 176.608C32.7205 167.931 32.7205 155.762 25.9518 147.085L8.54944 124.776C3.32158 118.075 6.52634 108.212 14.6949 105.863L41.8864 98.0439C52.4625 95.0025 59.6146 85.1576 59.2389 74.1592L58.2731 45.8818C57.983 37.3873 66.3728 31.2924 74.3619 34.1934L100.957 43.8496C111.301 47.6056 122.874 43.8454 129.035 34.7266L144.874 11.2822Z" stroke="#004ACD" stroke-width="12"/>
</svg>
