<svg width="315" height="45" viewBox="0 0 315 45" fill="none" xmlns="http://www.w3.org/2000/svg">
<path d="M-5.84126e-05 9.5998V-0.000198364H40.9599V9.5998H25.2799V44.7998H15.6799V9.5998H-5.84126e-05ZM74.2224 27.1998H55.6624V30.3998C55.6624 33.5998 57.3264 35.1998 60.7184 35.1998H81.2624V44.7998H59.3744C50.4144 44.7998 46.0624 40.5758 46.0624 31.9998V12.7998C46.0624 4.2238 50.2864 -0.000198364 58.8624 -0.000198364H74.2224C90.7344 -0.000198364 90.6704 27.1998 74.2224 27.1998ZM55.6624 17.5998H72.6224C77.7424 17.5998 77.8064 9.5998 72.6224 9.5998H60.4624C57.2624 9.5998 55.6624 11.1998 55.6624 14.3998V17.5998ZM136.55 12.7998V44.7998H126.95V14.3998C126.95 11.1998 125.35 9.5998 122.15 9.5998H106.15C102.95 9.5998 101.35 11.1998 101.35 14.3998V44.7998H91.7499V12.7998C91.7499 4.2238 95.9739 -0.000198364 104.55 -0.000198364H123.75C132.326 -0.000198364 136.55 4.2238 136.55 12.7998ZM118.95 17.5998V44.7998H109.35V17.5998H118.95ZM141.687 44.7998V30.3998C141.687 21.8238 145.911 17.5998 154.487 17.5998H169.079C174.519 17.5998 174.583 9.5998 169.079 9.5998H141.687V-0.000198364H169.079C187.767 -0.000198364 187.703 27.1998 169.079 27.1998H156.087C152.887 27.1998 151.287 28.7998 151.287 31.9998V44.7998H141.687ZM200.283 44.7998C192.219 44.7998 188.187 40.5758 188.187 31.9998V-0.000198364H197.787V30.3998C197.787 33.5998 199.259 35.1998 202.267 35.1998H222.747V44.7998H200.283ZM240.675 -0.000198364H256.035C264.611 -0.000198364 268.835 4.2238 268.835 12.7998V31.9998C268.835 40.5758 264.611 44.7998 256.035 44.7998H240.675C232.099 44.7998 227.875 40.5758 227.875 31.9998V12.7998C227.875 4.2238 232.099 -0.000198364 240.675 -0.000198364ZM237.475 30.3998C237.475 33.5998 239.075 35.1998 242.275 35.1998H254.435C257.635 35.1998 259.235 33.5998 259.235 30.3998V14.3998C259.235 11.1998 257.635 9.5998 254.435 9.5998H242.275C239.075 9.5998 237.475 11.1998 237.475 14.3998V30.3998ZM273.937 -0.000198364H283.537V17.5998H297.489C300.177 17.5998 301.457 16.2558 301.457 13.5678V-0.000198364H311.057V13.5678C311.057 18.3038 309.841 21.8238 307.409 24.0638C308.177 25.8558 308.945 27.9678 309.777 30.3998L314.897 44.7998H304.657L300.177 31.9998C299.153 28.9918 298.577 27.1998 295.377 27.1998H283.537V44.7998H273.937V-0.000198364Z" fill="#004ACD"/>
</svg>
