<svg width="194" height="23" viewBox="0 0 194 23" fill="none" xmlns="http://www.w3.org/2000/svg">
<g clip-path="url(#clip0_32_13)">
<path d="M0 4.8V0H20.48V4.8H12.64V22.4H7.84V4.8H0ZM37.1112 13.6H27.8312V15.2C27.8312 16.8 28.6632 17.6 30.3592 17.6H40.6312V22.4H29.6872C25.2072 22.4 23.0312 20.288 23.0312 16V6.4C23.0312 2.112 25.1432 0 29.4312 0H37.1112C45.3672 0 45.3352 13.6 37.1112 13.6ZM27.8312 8.8H36.3112C38.8712 8.8 38.9032 4.8 36.3112 4.8H30.2312C28.6312 4.8 27.8312 5.6 27.8312 7.2V8.8ZM68.275 6.4V22.4H63.475V7.2C63.475 5.6 62.675 4.8 61.075 4.8H53.075C51.475 4.8 50.675 5.6 50.675 7.2V22.4H45.875V6.4C45.875 2.112 47.987 0 52.275 0H61.875C66.163 0 68.275 2.112 68.275 6.4ZM59.475 8.8V22.4H54.675V8.8H59.475ZM70.8437 22.4V15.2C70.8437 10.912 72.9557 8.8 77.2437 8.8H84.5397C87.2597 8.8 87.2917 4.8 84.5397 4.8H70.8437V0H84.5397C93.8837 0 93.8517 13.6 84.5397 13.6H78.0437C76.4437 13.6 75.6437 14.4 75.6437 16V22.4H70.8437ZM100.142 22.4C96.1097 22.4 94.0937 20.288 94.0937 16V0H98.8937V15.2C98.8937 16.8 99.6297 17.6 101.134 17.6H111.374V22.4H100.142ZM120.337 0H128.017C132.305 0 134.417 2.112 134.417 6.4V16C134.417 20.288 132.305 22.4 128.017 22.4H120.337C116.049 22.4 113.937 20.288 113.937 16V6.4C113.937 2.112 116.049 0 120.337 0ZM118.737 15.2C118.737 16.8 119.537 17.6 121.137 17.6H127.217C128.817 17.6 129.617 16.8 129.617 15.2V7.2C129.617 5.6 128.817 4.8 127.217 4.8H121.137C119.537 4.8 118.737 5.6 118.737 7.2V15.2ZM136.969 0H141.769V8.8H148.745C150.089 8.8 150.729 8.128 150.729 6.784V0H155.529V6.784C155.529 9.152 154.921 10.912 153.705 12.032C154.089 12.928 154.473 13.984 154.889 15.2L157.449 22.4H152.329L150.089 16C149.577 14.496 149.289 13.6 147.689 13.6H141.769V22.4H136.969V0Z" fill="#004ACD"/>
<path d="M184.483 21.3999C189.474 21.3999 193.52 17.3705 193.52 12.3999C193.52 7.42934 189.474 3.3999 184.483 3.3999C179.492 3.3999 175.446 7.42934 175.446 12.3999C175.446 17.3705 179.492 21.3999 184.483 21.3999Z" fill="#004ACD"/>
</g>
<defs>
<clipPath id="clip0_32_13">
<rect width="194" height="23" fill="white"/>
</clipPath>
</defs>
</svg>
